<?xml version="1.0" encoding="UTF-8" standalone="no"?>
<!-- Creator: CorelDRAW -->

<svg
   xmlns:dc="http://purl.org/dc/elements/1.1/"
   xmlns:cc="http://creativecommons.org/ns#"
   xmlns:rdf="http://www.w3.org/1999/02/22-rdf-syntax-ns#"
   xmlns:svg="http://www.w3.org/2000/svg"
   xmlns="http://www.w3.org/2000/svg"
   xmlns:xlink="http://www.w3.org/1999/xlink"
   xmlns:sodipodi="http://sodipodi.sourceforge.net/DTD/sodipodi-0.dtd"
   xmlns:inkscape="http://www.inkscape.org/namespaces/inkscape"
   xml:space="preserve"
   width="3.7cm"
   height="3.7cm"
   style="clip-rule:evenodd;fill-rule:evenodd;image-rendering:optimizeQuality;shape-rendering:geometricPrecision;text-rendering:geometricPrecision"
   viewBox="0 0 36.999999 36.999999"
   version="1.1"
   id="svg32"
   sodipodi:docname="Amazon_Nein_Danke print.svg"
   inkscape:version="0.92.4 (5da689c313, 2019-01-14)"
   inkscape:export-filename="/home/shiro/Desktop/Facebook_Nein_Danke.svg.png"
   inkscape:export-xdpi="96"
   inkscape:export-ydpi="96"><metadata
   id="metadata36"><rdf:RDF><cc:Work
       rdf:about=""><dc:format>image/svg+xml</dc:format><dc:type
         rdf:resource="http://purl.org/dc/dcmitype/StillImage" /><dc:title /></cc:Work></rdf:RDF></metadata><sodipodi:namedview
   pagecolor="#ffffff"
   bordercolor="#666666"
   borderopacity="1"
   objecttolerance="10"
   gridtolerance="10"
   guidetolerance="10"
   inkscape:pageopacity="0"
   inkscape:pageshadow="2"
   inkscape:window-width="1920"
   inkscape:window-height="1027"
   id="namedview34"
   showgrid="true"
   inkscape:zoom="3.6806566"
   inkscape:cx="123.42422"
   inkscape:cy="52.902276"
   inkscape:window-x="-8"
   inkscape:window-y="-8"
   inkscape:window-maximized="1"
   inkscape:current-layer="svg32"
   showguides="true"
   inkscape:guide-bbox="true"
   inkscape:snap-global="false"
   units="cm"><inkscape:grid
     type="xygrid"
     id="grid49" /></sodipodi:namedview>
 <defs
   id="defs4">
  <style
   type="text/css"
   id="style2">
   <![CDATA[
    .fil1 {fill:#1F1A17}
    .fil2 {fill:#DE411A}
    .fil0 {fill:#FACF00}
    .fil3 {fill:#1F1A17;fill-rule:nonzero}
   ]]>
  </style>
 
    
    
    
    
    
    
    
    
    
    
   <path
   inkscape:connector-curvature="0"
   id="path833"
   d="M 39.326675,62.01092 A 65.908504,65.908504 0 0 1 129.78989,39.554947 65.908504,65.908504 0 0 1 152.24585,130.01816 65.908504,65.908504 0 0 1 61.78265,152.47412 65.908504,65.908504 0 0 1 39.326675,62.01092 Z"
   style="fill:#ff0000;fill-opacity:0;stroke:#ffffff;stroke-width:0;stroke-miterlimit:4;stroke-dasharray:none;stroke-opacity:1" />



   
   
   
   
   
   
   
  
  
  
 </defs>
 <rect
   y="0.043242022"
   x="0.066277005"
   height="36.999996"
   width="37"
   id="rect843"
   style="fill:#232f3e;fill-opacity:1;stroke:#ffffff;stroke-width:0;stroke-miterlimit:4;stroke-dasharray:none;stroke-opacity:1" /><path
   inkscape:connector-curvature="0"
   id="_78721264"
   class="fil0"
   d="m 4.7450347,20.998029 c 1.386527,7.6064 8.6764453,12.64991 16.2830843,11.26397 l 0.0023,-2.9e-4 c 7.605259,-1.38707 12.647278,-8.67849 11.260747,-16.28491 C 30.919207,8.4502289 23.766986,3.4342989 16.248826,4.6718289 l -0.481547,0.0878 C 8.2948947,6.2546389 3.3730957,13.471479 4.7450727,20.998049 Z"
   style="clip-rule:evenodd;fill:#232f3e;fill-opacity:1;fill-rule:evenodd;stroke-width:0.14588265;image-rendering:optimizeQuality;shape-rendering:geometricPrecision;text-rendering:geometricPrecision" /><path
   inkscape:connector-curvature="0"
   id="path4554"
   d="M 9.4621547,15.170259 A 9.6390432,9.6390432 0 0 1 21.857373,9.4974289 9.6390432,9.6390432 0 0 1 27.530194,21.892649 9.6390432,9.6390432 0 0 1 15.134975,27.565469 9.6390432,9.6390432 0 0 1 9.4621547,15.170259 Z"
   style="clip-rule:evenodd;fill:#ff0000;fill-opacity:0;fill-rule:evenodd;stroke-width:0.04201156;image-rendering:optimizeQuality;shape-rendering:geometricPrecision;text-rendering:geometricPrecision" /><path
   inkscape:connector-curvature="0"
   id="path858"
   d="M 9.9903575,13.983789 A 9.6149072,9.6149072 0 0 1 22.979028,9.9604401 9.6149072,9.6149072 0 0 1 27.002371,22.949109 9.6149072,9.6149072 0 0 1 14.013702,26.972451 9.6149072,9.6149072 0 0 1 9.9903575,13.983789 Z"
   style="clip-rule:evenodd;fill:#ffffff;fill-opacity:0;fill-rule:evenodd;stroke:#ffffff;stroke-width:0;stroke-miterlimit:4;stroke-dasharray:none;stroke-opacity:1;image-rendering:optimizeQuality;shape-rendering:geometricPrecision;text-rendering:geometricPrecision" /><text
   xml:space="preserve"
   style="font-style:normal;font-weight:normal;font-size:10.58333397px;line-height:1.25;font-family:sans-serif;letter-spacing:0px;word-spacing:0px;fill:#ffffff;fill-opacity:1;stroke:none;stroke-width:0.26458335;"
   id="text105"><textPath
     xlink:href="#path858"
     id="textPath107"
     style="font-style:normal;font-variant:normal;font-weight:normal;font-stretch:normal;font-size:4.23333359px;font-family:'Arial Rounded MT Bold';-inkscape-font-specification:'Arial Rounded MT Bold, ';stroke-width:0.26458335;fill:#ffffff;">AMAZON?</textPath></text>

<style
   id="style1793"
   type="text/css">
	.st0{fill:#4285F4;}
	.st1{fill:#34A853;}
	.st2{fill:#FBBC04;}
	.st3{fill:#EA4335;}
</style><path
   style="clip-rule:evenodd;fill:#ffffff;fill-opacity:0;fill-rule:evenodd;stroke:#ffffff;stroke-width:0;stroke-miterlimit:4;stroke-dasharray:none;stroke-opacity:1;image-rendering:optimizeQuality;shape-rendering:geometricPrecision;text-rendering:geometricPrecision"
   d="M 5.7510865,19.185758 A 12.765565,12.765565 0 0 0 19.215691,31.211726 12.765565,12.765565 0 0 0 31.241647,17.747116 12.765565,12.765565 0 0 0 17.77704,5.7211659 12.765565,12.765565 0 0 0 5.7510865,19.185758 Z"
   id="path147"
   inkscape:connector-curvature="0" /><text
   xml:space="preserve"
   style="font-style:normal;font-weight:normal;font-size:10.58333397px;line-height:1.25;font-family:sans-serif;letter-spacing:0px;word-spacing:0px;fill:#ffffff;fill-opacity:1;stroke:none;stroke-width:0.26458335;"
   id="text151"><textPath
     xlink:href="#path147"
     id="textPath153"
     style="font-style:normal;font-variant:normal;font-weight:normal;font-stretch:normal;font-size:4.23333359px;font-family:'Arial Rounded MT Bold';-inkscape-font-specification:'Arial Rounded MT Bold, ';letter-spacing:0.26458334px;stroke-width:0.26458335;fill:#ffffff;">NÃO, OBRIGADO.</textPath></text>
<path
   id="path156"
   d="m 12.134547,21.699032 c 0.03837,-0.0614 0.09977,-0.0652 0.184207,-0.0115 1.918815,1.11293 4.006503,1.66938 6.26304,1.66938 1.504348,0 2.989518,-0.28014 4.455506,-0.84044 0.03837,-0.0154 0.09401,-0.0384 0.166938,-0.0691 0.07291,-0.0307 0.12472,-0.0537 0.155425,-0.0691 0.115131,-0.0461 0.205309,-0.023 0.270554,0.0691 0.06523,0.0921 0.04413,0.17653 -0.06332,0.25328 -0.138157,0.0998 -0.314697,0.21491 -0.529597,0.34539 -0.660082,0.39144 -1.396911,0.69461 -2.210484,0.90952 -0.813584,0.21492 -1.607977,0.32237 -2.383178,0.32237 -1.197346,0 -2.32946,-0.20916 -3.396318,-0.62746 -1.066869,-0.4183 -2.022444,-1.00738 -2.866722,-1.76724 -0.04605,-0.0384 -0.06908,-0.0768 -0.06908,-0.11513 0,-0.023 0.0077,-0.0461 0.02303,-0.0691 z m 10.281055,0.19572 c 0.01535,-0.0307 0.03837,-0.0614 0.06908,-0.0921 0.191875,-0.13048 0.376081,-0.21875 0.552621,-0.2648 0.291658,-0.0768 0.575647,-0.11896 0.851958,-0.12664 0.07675,-0.008 0.149668,-0.004 0.218745,0.0115 0.345389,0.0307 0.552621,0.0883 0.621701,0.17269 0.03069,0.0461 0.04605,0.11513 0.04605,0.20724 v 0.0806 c 0,0.26863 -0.07292,0.58523 -0.218743,0.94981 -0.145836,0.36458 -0.349236,0.65816 -0.610188,0.88074 -0.03838,0.0307 -0.07292,0.0461 -0.103616,0.0461 -0.01536,0 -0.0307,-0.004 -0.04605,-0.0115 -0.04605,-0.023 -0.05756,-0.0652 -0.03454,-0.12665 0.283978,-0.66775 0.425979,-1.1321 0.425979,-1.39306 0,-0.0844 -0.01536,-0.14584 -0.04605,-0.18421 -0.07676,-0.0921 -0.291667,-0.13816 -0.644724,-0.13816 -0.130487,0 -0.283989,0.008 -0.460518,0.023 -0.191885,0.023 -0.368413,0.046 -0.529595,0.0691 -0.04605,0 -0.07676,-0.008 -0.0921,-0.023 -0.01536,-0.0153 -0.01919,-0.0307 -0.01151,-0.046 0,-0.008 0.0038,-0.0192 0.01151,-0.0345 z"
   inkscape:connector-curvature="0"
   style="clip-rule:evenodd;fill:#fe9800;fill-opacity:1;fill-rule:evenodd;stroke-width:0.01151294;image-rendering:optimizeQuality;shape-rendering:geometricPrecision;text-rendering:geometricPrecision"
   sodipodi:nodetypes="ccscccccccsccsccccccccssccsccscscccccc" /><path
   id="path158"
   d="m 15.599941,18.417842 c 0,-0.52959 0.130476,-0.98243 0.39144,-1.35852 0.260952,-0.37609 0.617854,-0.66007 1.070704,-0.85196 0.414466,-0.17653 0.924868,-0.30317 1.53122,-0.37993 0.207234,-0.023 0.544942,-0.0537 1.013139,-0.0921 v -0.19572 c 0,-0.49122 -0.05373,-0.82125 -0.161181,-0.99011 -0.161181,-0.23026 -0.414466,-0.34539 -0.759855,-0.34539 h -0.0921 c -0.253285,0.023 -0.472031,0.10362 -0.656238,0.24177 -0.184205,0.13816 -0.30318,0.33004 -0.3569,0.57565 -0.03071,0.1535 -0.107461,0.24177 -0.230258,0.2648 l -1.323989,-0.16119 c -0.130488,-0.0307 -0.19572,-0.0998 -0.19572,-0.20723 0,-0.023 0.0038,-0.0499 0.01151,-0.0806 0.130476,-0.6831 0.450916,-1.18967 0.961331,-1.51971 0.510403,-0.330041 1.107152,-0.514251 1.79026,-0.552621 h 0.287825 c 0.874982,0 1.558081,0.22643 2.049304,0.679271 0.07705,0.0771 0.148241,0.159836 0.212989,0.24752 0.06523,0.0883 0.11704,0.16694 0.155423,0.23602 0.03837,0.0691 0.07291,0.16886 0.103618,0.29934 0.03069,0.13047 0.05372,0.22066 0.06908,0.27055 0.01535,0.0499 0.02686,0.15735 0.03454,0.32236 0.0077,0.16502 0.01151,0.26288 0.01151,0.29358 v 2.78613 c 0,0.19956 0.02878,0.38185 0.08635,0.54687 0.05757,0.16501 0.113207,0.28399 0.166937,0.3569 0.05372,0.0729 0.14199,0.18996 0.264797,0.35114 0.04605,0.0691 0.06908,0.13048 0.06908,0.18421 0,0.0614 -0.03071,0.11513 -0.0921,0.16118 -0.637057,0.552619 -0.982445,0.851959 -1.036165,0.898009 -0.0921,0.0691 -0.203398,0.0768 -0.333874,0.023 -0.107462,-0.0921 -0.201477,-0.18038 -0.282067,-0.2648 -0.08059,-0.0844 -0.138157,-0.14584 -0.172694,-0.18421 -0.03454,-0.0384 -0.09019,-0.113209 -0.166938,-0.224499 -0.07676,-0.1113 -0.130488,-0.18613 -0.161182,-0.2245 -0.429824,0.468189 -0.851957,0.759849 -1.266423,0.874979 -0.260964,0.0768 -0.583326,0.11513 -0.967087,0.11513 -0.591005,0 -1.07646,-0.18229 -1.456387,-0.54686 -0.379927,-0.364589 -0.56989,-0.880739 -0.56989,-1.548499 z m 1.980226,-0.23025 c 0,0.29933 0.07484,0.53918 0.224503,0.71955 0.149667,0.18038 0.351143,0.27056 0.604428,0.27056 0.02303,0 0.05564,-0.004 0.09786,-0.0115 0.04221,-0.008 0.07099,-0.0115 0.08635,-0.0115 0.322363,-0.0844 0.571802,-0.29166 0.74834,-0.6217 0.08443,-0.14583 0.147747,-0.30509 0.189964,-0.47779 0.04221,-0.17269 0.06523,-0.31277 0.06908,-0.42022 0.0038,-0.10745 0.0058,-0.28399 0.0058,-0.52959 v -0.28783 c -0.445172,0 -0.78288,0.0307 -1.01314,0.0921 -0.675429,0.19188 -1.013137,0.61786 -1.013137,1.27793 z"
   inkscape:connector-curvature="0"
   style="clip-rule:evenodd;fill:#ffffff;fill-rule:evenodd;stroke-width:0.01151294;image-rendering:optimizeQuality;shape-rendering:geometricPrecision;text-rendering:geometricPrecision"
   sodipodi:nodetypes="cccccscscccccscccsccccccsscccsccccccccscccccscccccscccc" /></svg>