<?xml version="1.0" encoding="UTF-8" standalone="no"?>
<!-- Creator: CorelDRAW -->

<svg
   xmlns:dc="http://purl.org/dc/elements/1.1/"
   xmlns:cc="http://creativecommons.org/ns#"
   xmlns:rdf="http://www.w3.org/1999/02/22-rdf-syntax-ns#"
   xmlns:svg="http://www.w3.org/2000/svg"
   xmlns="http://www.w3.org/2000/svg"
   xmlns:xlink="http://www.w3.org/1999/xlink"
   xmlns:sodipodi="http://sodipodi.sourceforge.net/DTD/sodipodi-0.dtd"
   xmlns:inkscape="http://www.inkscape.org/namespaces/inkscape"
   xml:space="preserve"
   width="3.7cm"
   height="3.7cm"
   style="clip-rule:evenodd;fill-rule:evenodd;image-rendering:optimizeQuality;shape-rendering:geometricPrecision;text-rendering:geometricPrecision"
   viewBox="0 0 36.999999 36.999999"
   version="1.1"
   id="svg32"
   sodipodi:docname="Apple_Nein_Danke print.svg"
   inkscape:version="0.92.4 (5da689c313, 2019-01-14)"
   inkscape:export-filename="/home/shiro/Desktop/Facebook_Nein_Danke.svg.png"
   inkscape:export-xdpi="96"
   inkscape:export-ydpi="96"><metadata
   id="metadata36"><rdf:RDF><cc:Work
       rdf:about=""><dc:format>image/svg+xml</dc:format><dc:type
         rdf:resource="http://purl.org/dc/dcmitype/StillImage" /><dc:title></dc:title></cc:Work></rdf:RDF></metadata><sodipodi:namedview
   pagecolor="#ffffff"
   bordercolor="#666666"
   borderopacity="1"
   objecttolerance="10"
   gridtolerance="10"
   guidetolerance="10"
   inkscape:pageopacity="0"
   inkscape:pageshadow="2"
   inkscape:window-width="1920"
   inkscape:window-height="1027"
   id="namedview34"
   showgrid="true"
   inkscape:zoom="3.6806566"
   inkscape:cx="121.31542"
   inkscape:cy="100.10449"
   inkscape:window-x="-8"
   inkscape:window-y="-8"
   inkscape:window-maximized="1"
   inkscape:current-layer="svg32"
   showguides="true"
   inkscape:guide-bbox="true"
   inkscape:snap-global="false"
   units="cm"><inkscape:grid
     type="xygrid"
     id="grid49" /></sodipodi:namedview>
 <defs
   id="defs4">
  <style
   type="text/css"
   id="style2">
   <![CDATA[
    .fil1 {fill:#1F1A17}
    .fil2 {fill:#DE411A}
    .fil0 {fill:#FACF00}
    .fil3 {fill:#1F1A17;fill-rule:nonzero}
   ]]>
  </style>
 
    
    
    
    
    
    
    
    
    
    
   <path
   inkscape:connector-curvature="0"
   id="path833"
   d="M 39.326675,62.01092 A 65.908504,65.908504 0 0 1 129.78989,39.554947 65.908504,65.908504 0 0 1 152.24585,130.01816 65.908504,65.908504 0 0 1 61.78265,152.47412 65.908504,65.908504 0 0 1 39.326675,62.01092 Z"
   style="fill:#ff0000;fill-opacity:0;stroke:#ffffff;stroke-width:0;stroke-miterlimit:4;stroke-dasharray:none;stroke-opacity:1" />



   
   
   
   
   
   
   
  
  
  
 <style
   id="style2-4"
   type="text/css">
   <![CDATA[
    .fil1 {fill:#1F1A17}
    .fil2 {fill:#DE411A}
    .fil0 {fill:#FACF00}
    .fil3 {fill:#1F1A17;fill-rule:nonzero}
   ]]>
  </style>
  
  
 
   
   
   
   
   
   
   
  </defs>
 <rect
   style="clip-rule:evenodd;fill:#000000;fill-opacity:1;fill-rule:evenodd;stroke:#ffffff;stroke-width:0;stroke-miterlimit:4;stroke-dasharray:none;stroke-opacity:1;image-rendering:optimizeQuality;shape-rendering:geometricPrecision;text-rendering:geometricPrecision"
   id="rect850"
   width="36.999992"
   height="36.999996"
   x="-0.0066141831"
   y="-0.12207487" /><path
   inkscape:connector-curvature="0"
   id="_78721264"
   class="fil0"
   d="m 4.4933807,18.379333 c 0,-7.731742 6.2672933,-14.0007889 13.9991613,-14.0014162 h 0.0023 c 7.730686,6.273e-4 13.998534,6.2696602 13.998534,14.0014312 1.5e-5,7.650586 -6.136758,13.867817 -13.754969,13.998571 h -0.48948 C 10.629584,32.247165 4.4933807,26.029934 4.4933807,18.379333 Z"
   style="clip-rule:evenodd;fill:#000000;fill-opacity:1;fill-rule:evenodd;stroke-width:0.1458827;image-rendering:optimizeQuality;shape-rendering:geometricPrecision;text-rendering:geometricPrecision" /><path
   inkscape:connector-curvature="0"
   id="path4554"
   d="M 9.4621547,15.170259 A 9.6390432,9.6390432 0 0 1 21.857373,9.4974289 9.6390432,9.6390432 0 0 1 27.530194,21.892649 9.6390432,9.6390432 0 0 1 15.134975,27.565469 9.6390432,9.6390432 0 0 1 9.4621547,15.170259 Z"
   style="clip-rule:evenodd;fill:#ff0000;fill-opacity:0;fill-rule:evenodd;stroke-width:0.04201156;image-rendering:optimizeQuality;shape-rendering:geometricPrecision;text-rendering:geometricPrecision" /><path
   inkscape:connector-curvature="0"
   id="path858"
   d="M 11.599536,11.767183 A 9.6149072,9.6149072 0 0 1 25.195634,11.56962 9.6149072,9.6149072 0 0 1 25.393191,25.165714 9.6149072,9.6149072 0 0 1 11.797097,25.363271 9.6149072,9.6149072 0 0 1 11.599536,11.767183 Z"
   style="clip-rule:evenodd;fill:#ffffff;fill-opacity:0;fill-rule:evenodd;stroke:#ffffff;stroke-width:0;stroke-miterlimit:4;stroke-dasharray:none;stroke-opacity:1;image-rendering:optimizeQuality;shape-rendering:geometricPrecision;text-rendering:geometricPrecision" /><text
   xml:space="preserve"
   style="font-style:normal;font-weight:normal;font-size:10.58333397px;line-height:1.25;font-family:sans-serif;letter-spacing:0px;word-spacing:0px;fill:#ffffff;fill-opacity:1;stroke:none;stroke-width:0.26458335"
   id="text105"><textPath
     xlink:href="#path858"
     id="textPath107"
     style="font-style:normal;font-variant:normal;font-weight:normal;font-stretch:normal;font-size:4.23333359px;font-family:'Arial Rounded MT Bold';-inkscape-font-specification:'Arial Rounded MT Bold, ';fill:#ffffff;stroke-width:0.26458335;letter-spacing:-0.13229167px">APPLE?</textPath></text>

<style
   id="style1793"
   type="text/css">
	.st0{fill:#4285F4;}
	.st1{fill:#34A853;}
	.st2{fill:#FBBC04;}
	.st3{fill:#EA4335;}
</style><path
   style="clip-rule:evenodd;fill:#ffffff;fill-opacity:0;fill-rule:evenodd;stroke:#ffffff;stroke-width:0;stroke-miterlimit:4;stroke-dasharray:none;stroke-opacity:1;image-rendering:optimizeQuality;shape-rendering:geometricPrecision;text-rendering:geometricPrecision"
   d="M 5.7510865,19.185758 A 12.765565,12.765565 0 0 0 19.215691,31.211726 12.765565,12.765565 0 0 0 31.241647,17.747116 12.765565,12.765565 0 0 0 17.77704,5.7211659 12.765565,12.765565 0 0 0 5.7510865,19.185758 Z"
   id="path147"
   inkscape:connector-curvature="0" /><text
   xml:space="preserve"
   style="font-style:normal;font-weight:normal;font-size:10.58333397px;line-height:1.25;font-family:sans-serif;letter-spacing:0px;word-spacing:0px;fill:#ffffff;fill-opacity:1;stroke:none;stroke-width:0.26458335;"
   id="text151"><textPath
     xlink:href="#path147"
     id="textPath153"
     style="font-style:normal;font-variant:normal;font-weight:normal;font-stretch:normal;font-size:4.23333359px;font-family:'Arial Rounded MT Bold';-inkscape-font-specification:'Arial Rounded MT Bold, ';letter-spacing:0.26458334px;stroke-width:0.26458335;fill:#ffffff;">NÃO, OBRIGADO.</textPath></text>
<style
   type="text/css"
   id="style1793-9">
	.st0{fill:#4285F4;}
	.st1{fill:#34A853;}
	.st2{fill:#FBBC04;}
	.st3{fill:#EA4335;}
</style><path
   style="clip-rule:evenodd;fill:#eeeeee;fill-opacity:1;fill-rule:evenodd;stroke-width:0.01048189;image-rendering:optimizeQuality;shape-rendering:geometricPrecision;text-rendering:geometricPrecision"
   d="m 23.499805,21.45317 c -0.188192,0.434761 -0.410949,0.834957 -0.66904,1.202891 -0.351805,0.501588 -0.639853,0.848783 -0.861841,1.041583 -0.344123,0.316471 -0.712825,0.478545 -1.107645,0.487764 -0.283438,0 -0.625256,-0.08065 -1.023146,-0.244266 -0.399197,-0.162843 -0.766055,-0.243498 -1.101498,-0.243498 -0.351803,0 -0.729108,0.08066 -1.132682,0.243498 -0.404191,0.163612 -0.729801,0.248874 -0.978752,0.257322 -0.378611,0.01613 -0.755992,-0.150552 -1.132683,-0.50082 -0.240425,-0.209699 -0.541147,-0.569183 -0.9014,-1.078454 -0.386522,-0.543834 -0.704297,-1.174469 -0.953247,-1.893438 -0.266618,-0.77658 -0.400273,-1.528578 -0.400273,-2.25661 0,-0.833959 0.180203,-1.553235 0.541148,-2.155986 0.283668,-0.484152 0.661051,-0.866066 1.133374,-1.146434 0.472322,-0.280367 0.982667,-0.423239 1.532263,-0.43238 0.300723,0 0.695082,0.09302 1.185147,0.275836 0.488684,0.183429 0.802466,0.276449 0.940038,0.276449 0.102851,0 0.451429,-0.108767 1.04235,-0.32561 0.558814,-0.201096 1.030445,-0.284362 1.416814,-0.251562 1.046962,0.08449 1.833525,0.49721 2.356622,1.240759 -0.936349,0.567341 -1.399533,1.361971 -1.390314,2.381356 0.0084,0.794015 0.296497,1.454759 0.862608,1.979392 0.256555,0.243498 0.543067,0.431689 0.86184,0.565344 -0.06913,0.200481 -0.142103,0.392514 -0.219683,0.576864 z m -2.401173,-9.448761 c 0,0.622347 -0.227366,1.203429 -0.680562,1.741273 -0.54691,0.639392 -1.20842,1.008862 -1.925776,0.950561 -0.0091,-0.07466 -0.01444,-0.153242 -0.01444,-0.235816 0,-0.597451 0.260088,-1.236842 0.721965,-1.759631 0.230592,-0.264697 0.523863,-0.48479 0.879507,-0.660362 0.354877,-0.172952 0.690549,-0.268598 1.006249,-0.284977 0.0092,0.0832 0.01306,0.166401 0.01306,0.248944 z"
   id="path4"
   inkscape:connector-curvature="0" /></svg>