<?xml version="1.0" encoding="UTF-8" standalone="no"?>
<!-- Creator: CorelDRAW -->

<svg
   xmlns:dc="http://purl.org/dc/elements/1.1/"
   xmlns:cc="http://creativecommons.org/ns#"
   xmlns:rdf="http://www.w3.org/1999/02/22-rdf-syntax-ns#"
   xmlns:svg="http://www.w3.org/2000/svg"
   xmlns="http://www.w3.org/2000/svg"
   xmlns:xlink="http://www.w3.org/1999/xlink"
   xmlns:sodipodi="http://sodipodi.sourceforge.net/DTD/sodipodi-0.dtd"
   xmlns:inkscape="http://www.inkscape.org/namespaces/inkscape"
   xml:space="preserve"
   width="3.7cm"
   height="3.7cm"
   style="clip-rule:evenodd;fill-rule:evenodd;image-rendering:optimizeQuality;shape-rendering:geometricPrecision;text-rendering:geometricPrecision"
   viewBox="0 0 36.999999 36.999999"
   version="1.1"
   id="svg32"
   sodipodi:docname="Google_Nein_Danke print.svg"
   inkscape:version="0.92.4 (5da689c313, 2019-01-14)"
   inkscape:export-filename="/home/shiro/Desktop/Facebook_Nein_Danke.svg.png"
   inkscape:export-xdpi="96"
   inkscape:export-ydpi="96"><metadata
   id="metadata36"><rdf:RDF><cc:Work
       rdf:about=""><dc:format>image/svg+xml</dc:format><dc:type
         rdf:resource="http://purl.org/dc/dcmitype/StillImage" /><dc:title></dc:title></cc:Work></rdf:RDF></metadata><sodipodi:namedview
   pagecolor="#ffffff"
   bordercolor="#666666"
   borderopacity="1"
   objecttolerance="10"
   gridtolerance="10"
   guidetolerance="10"
   inkscape:pageopacity="0"
   inkscape:pageshadow="2"
   inkscape:window-width="1920"
   inkscape:window-height="1027"
   id="namedview34"
   showgrid="true"
   inkscape:zoom="3.6806566"
   inkscape:cx="154.74556"
   inkscape:cy="44.537171"
   inkscape:window-x="-8"
   inkscape:window-y="-8"
   inkscape:window-maximized="1"
   inkscape:current-layer="svg32"
   showguides="true"
   inkscape:guide-bbox="true"
   inkscape:snap-global="false"
   units="cm"><inkscape:grid
     type="xygrid"
     id="grid49" /></sodipodi:namedview>
 <defs
   id="defs4">
  <style
   type="text/css"
   id="style2">
   <![CDATA[
    .fil1 {fill:#1F1A17}
    .fil2 {fill:#DE411A}
    .fil0 {fill:#FACF00}
    .fil3 {fill:#1F1A17;fill-rule:nonzero}
   ]]>
  </style>
 
    
    
    
    
    
    
    
    
    
    
   <path
   inkscape:connector-curvature="0"
   id="path833"
   d="M 39.326675,62.01092 A 65.908504,65.908504 0 0 1 129.78989,39.554947 65.908504,65.908504 0 0 1 152.24585,130.01816 65.908504,65.908504 0 0 1 61.78265,152.47412 65.908504,65.908504 0 0 1 39.326675,62.01092 Z"
   style="fill:#ff0000;fill-opacity:0;stroke:#ffffff;stroke-width:0;stroke-miterlimit:4;stroke-dasharray:none;stroke-opacity:1" />



   
   
   
   
   
   
   
  
  
  
 <style
   id="style2-4"
   type="text/css">
   <![CDATA[
    .fil1 {fill:#1F1A17}
    .fil2 {fill:#DE411A}
    .fil0 {fill:#FACF00}
    .fil3 {fill:#1F1A17;fill-rule:nonzero}
   ]]>
  </style>
  
  
 
   
   
   
   
   
   
   
  <style
   id="style2-5"
   type="text/css">
   <![CDATA[
    .fil1 {fill:#1F1A17}
    .fil2 {fill:#DE411A}
    .fil0 {fill:#FACF00}
    .fil3 {fill:#1F1A17;fill-rule:nonzero}
   ]]>
  </style>
  
  
 
   
   
   
   
   
   
   
  <style
   id="style2-0"
   type="text/css">
   <![CDATA[
    .fil1 {fill:#1F1A17}
    .fil2 {fill:#DE411A}
    .fil0 {fill:#FACF00}
    .fil3 {fill:#1F1A17;fill-rule:nonzero}
   ]]>
  </style>
  
  
 
   
   
   
   
   
   
   
  </defs>
 <rect
   y="0.017730242"
   x="0.047072008"
   height="37"
   width="37"
   id="rect876"
   style="clip-rule:evenodd;fill:#ffffff;fill-opacity:1;fill-rule:evenodd;stroke:#ffffff;stroke-width:0;stroke-miterlimit:4;stroke-dasharray:none;stroke-opacity:1;image-rendering:optimizeQuality;shape-rendering:geometricPrecision;text-rendering:geometricPrecision" /><path
   inkscape:connector-curvature="0"
   id="_78721264"
   class="fil0"
   d="m 4.5470714,18.519146 c 0,-7.731737 6.2672926,-14.0007806 13.9991606,-14.0014079 h 0.0023 c 7.730686,6.273e-4 13.998534,6.2696569 13.998534,14.0014229 1.5e-5,7.650582 -6.136758,13.867809 -13.754969,13.998563 h -0.48948 C 10.683274,32.38697 4.5470714,26.169743 4.5470714,18.519146 Z"
   style="clip-rule:evenodd;fill:#ffffff;fill-opacity:1;fill-rule:evenodd;stroke-width:0.14588265;image-rendering:optimizeQuality;shape-rendering:geometricPrecision;text-rendering:geometricPrecision" /><path
   inkscape:connector-curvature="0"
   id="path4554"
   d="M 9.4621547,15.170259 A 9.6390432,9.6390432 0 0 1 21.857373,9.4974289 9.6390432,9.6390432 0 0 1 27.530194,21.892649 9.6390432,9.6390432 0 0 1 15.134975,27.565469 9.6390432,9.6390432 0 0 1 9.4621547,15.170259 Z"
   style="clip-rule:evenodd;fill:#ff0000;fill-opacity:0;fill-rule:evenodd;stroke-width:0.04201156;image-rendering:optimizeQuality;shape-rendering:geometricPrecision;text-rendering:geometricPrecision" /><path
   inkscape:connector-curvature="0"
   id="path858"
   d="M 10.143948,13.703726 A 9.6149072,9.6149072 0 0 1 23.259091,10.11403 9.6149072,9.6149072 0 0 1 26.84878,23.229172 9.6149072,9.6149072 0 0 1 13.733639,26.818861 9.6149072,9.6149072 0 0 1 10.143948,13.703726 Z"
   style="clip-rule:evenodd;fill:#ffffff;fill-opacity:0;fill-rule:evenodd;stroke:#ffffff;stroke-width:0;stroke-miterlimit:4;stroke-dasharray:none;stroke-opacity:1;image-rendering:optimizeQuality;shape-rendering:geometricPrecision;text-rendering:geometricPrecision" /><text
   xml:space="preserve"
   style="font-style:normal;font-weight:normal;font-size:10.58333397px;line-height:1.25;font-family:sans-serif;letter-spacing:0px;word-spacing:0px;fill:#969696;fill-opacity:1;stroke:none;stroke-width:0.26458335;"
   id="text105"><textPath
     xlink:href="#path858"
     id="textPath107"
     style="font-style:normal;font-variant:normal;font-weight:normal;font-stretch:normal;font-size:4.23333359px;font-family:'Arial Rounded MT Bold';-inkscape-font-specification:'Arial Rounded MT Bold, ';letter-spacing:-0.13229167px;fill:#969696;stroke-width:0.26458335;fill-opacity:1;">GOOGLE?</textPath></text>

<style
   id="style1793"
   type="text/css">
	.st0{fill:#4285F4;}
	.st1{fill:#34A853;}
	.st2{fill:#FBBC04;}
	.st3{fill:#EA4335;}
</style><path
   style="clip-rule:evenodd;fill:#ffffff;fill-opacity:0;fill-rule:evenodd;stroke:#ffffff;stroke-width:0;stroke-miterlimit:4;stroke-dasharray:none;stroke-opacity:1;image-rendering:optimizeQuality;shape-rendering:geometricPrecision;text-rendering:geometricPrecision"
   d="M 5.7510865,19.185758 A 12.765565,12.765565 0 0 0 19.215691,31.211726 12.765565,12.765565 0 0 0 31.241647,17.747116 12.765565,12.765565 0 0 0 17.77704,5.7211659 12.765565,12.765565 0 0 0 5.7510865,19.185758 Z"
   id="path147"
   inkscape:connector-curvature="0" /><text
   xml:space="preserve"
   style="font-style:normal;font-weight:normal;font-size:10.58333397px;line-height:1.25;font-family:sans-serif;letter-spacing:0px;word-spacing:0px;fill:#969696;fill-opacity:1;stroke:none;stroke-width:0.26458335;"
   id="text151"><textPath
     xlink:href="#path147"
     id="textPath153"
     style="font-style:normal;font-variant:normal;font-weight:normal;font-stretch:normal;font-size:4.23333359px;font-family:'Arial Rounded MT Bold';-inkscape-font-specification:'Arial Rounded MT Bold, ';letter-spacing:0.26458334px;stroke-width:0.26458335;fill:#969696;fill-opacity:1;">NÃO, OBRIGADO.</textPath></text>
<style
   type="text/css"
   id="style1793-9">
	.st0{fill:#4285F4;}
	.st1{fill:#34A853;}
	.st2{fill:#FBBC04;}
	.st3{fill:#EA4335;}
</style><style
   type="text/css"
   id="style1793-1">
	.st0{fill:#4285F4;}
	.st1{fill:#34A853;}
	.st2{fill:#FBBC04;}
	.st3{fill:#EA4335;}
</style><path
   id="path1797"
   d="m 24.150198,18.664374 c 0,-0.389588 -0.03159,-0.781282 -0.09898,-1.164552 h -5.405797 v 2.206963 h 3.095645 c -0.128458,0.711788 -0.541211,1.341447 -1.145599,1.741564 v 1.431999 h 1.846858 c 1.084528,-0.998188 1.707869,-2.472304 1.707869,-4.215974 z"
   class="st0"
   inkscape:connector-curvature="0"
   style="clip-rule:evenodd;fill:#4285f4;fill-rule:evenodd;stroke-width:0.02105881;image-rendering:optimizeQuality;shape-rendering:geometricPrecision;text-rendering:geometricPrecision" /><path
   id="path1799"
   d="m 18.645425,24.263912 c 1.545717,0 2.849257,-0.507517 3.79901,-1.383564 l -1.846858,-1.431999 c -0.513835,0.349576 -1.177188,0.547529 -1.950046,0.547529 -1.495175,0 -2.762916,-1.008717 -3.217786,-2.364904 h -1.905822 v 1.476222 c 0.972917,1.935305 2.954551,3.156716 5.121502,3.156716 z"
   class="st1"
   inkscape:connector-curvature="0"
   style="clip-rule:evenodd;fill:#34a853;fill-rule:evenodd;stroke-width:0.02105881;image-rendering:optimizeQuality;shape-rendering:geometricPrecision;text-rendering:geometricPrecision" /><path
   id="path1801"
   d="m 15.427639,19.630974 c -0.24007,-0.711788 -0.24007,-1.482541 0,-2.194328 v -1.476223 h -1.903716 c -0.81287,1.619423 -0.81287,3.527351 0,5.146773 z"
   class="st2"
   inkscape:connector-curvature="0"
   style="clip-rule:evenodd;fill:#fbbc04;fill-rule:evenodd;stroke-width:0.02105881;image-rendering:optimizeQuality;shape-rendering:geometricPrecision;text-rendering:geometricPrecision" /><path
   id="path1803"
   d="m 18.645425,15.069635 c 0.817082,-0.01263 1.606787,0.294824 2.19854,0.8592 v 0 l 1.63627,-1.63627 c -1.036094,-0.972917 -2.411234,-1.507811 -3.83481,-1.490964 -2.166951,0 -4.148585,1.221411 -5.121502,3.158822 l 1.903716,1.476223 c 0.452764,-1.358294 1.722611,-2.367011 3.217786,-2.367011 z"
   class="st3"
   inkscape:connector-curvature="0"
   style="clip-rule:evenodd;fill:#ea4335;fill-rule:evenodd;stroke-width:0.02105881;image-rendering:optimizeQuality;shape-rendering:geometricPrecision;text-rendering:geometricPrecision" /></svg>